<?xml version="1.0" standalone="no"?>
<!DOCTYPE svg PUBLIC "-//W3C//DTD SVG 20010904//EN"
 "http://www.w3.org/TR/2001/REC-SVG-20010904/DTD/svg10.dtd">
<svg version="1.0" xmlns="http://www.w3.org/2000/svg"
 width="1024.000000pt" height="1024.000000pt" viewBox="0 0 1024.000000 1024.000000"
 preserveAspectRatio="xMidYMid meet">

<g transform="translate(0.000000,1024.000000) scale(0.100000,-0.100000)"
fill="#000000" stroke="none">
<path d="M6040 7150 c0 -5 5 -10 11 -10 5 0 7 5 4 10 -3 6 -8 10 -11 10 -2 0
-4 -4 -4 -10z"/>
<path d="M5930 7096 l0 -56 39 0 c40 0 59 19 44 43 -5 7 -8 23 -8 37 0 22 -5
25 -37 28 l-38 3 0 -55z m60 25 c0 -12 -29 -23 -41 -15 -18 10 -9 24 16 24 14
0 25 -4 25 -9z m3 -46 c-3 -13 -53 -20 -53 -7 0 15 13 23 35 20 11 -2 19 -7
18 -13z"/>
<path d="M6080 7095 c0 -30 5 -55 10 -55 6 0 10 25 10 55 0 30 -4 55 -10 55
-5 0 -10 -25 -10 -55z"/>
<path d="M6130 7095 c0 -30 5 -55 10 -55 6 0 10 25 10 55 0 30 -4 55 -10 55
-5 0 -10 -25 -10 -55z"/>
<path d="M6040 7080 c0 -22 5 -40 10 -40 6 0 10 18 10 40 0 22 -4 40 -10 40
-5 0 -10 -18 -10 -40z"/>
<path d="M5913 6919 c-203 -26 -380 -111 -533 -255 -115 -109 -93 -73 -644
-1063 -52 -94 -112 -188 -141 -219 -206 -228 -551 -235 -770 -16 -101 101
-164 243 -174 394 l-6 85 -212 3 -213 2 0 -47 c0 -126 42 -310 101 -440 70
-156 213 -325 358 -422 272 -184 650 -207 946 -58 141 70 281 192 362 312 22
33 167 292 324 575 254 459 291 521 345 576 163 164 420 201 628 91 156 -82
288 -287 302 -467 10 -123 -17 -110 225 -110 l211 0 -7 73 c-21 237 -83 412
-205 586 -207 292 -550 445 -897 400z"/>
<path d="M4925 6199 c-4 -6 -5 -12 -2 -15 2 -3 7 2 10 11 7 17 1 20 -8 4z"/>
<path d="M4865 6090 c-14 -27 -23 -50 -20 -50 2 0 16 23 30 50 14 28 23 50 20
50 -2 0 -16 -22 -30 -50z"/>
<path d="M4823 6023 c-15 -5 -17 -23 -4 -23 5 0 11 7 15 15 3 8 4 15 3 14 -1
0 -8 -3 -14 -6z"/>
<path d="M4018 5903 l-38 -4 0 -55 0 -54 40 0 c22 0 40 5 40 10 0 6 -13 10
-30 10 -20 0 -30 5 -30 15 0 10 10 15 31 15 17 0 28 4 24 10 -3 6 -18 10 -31
10 -34 0 -26 24 9 28 15 2 27 8 27 13 0 5 -1 8 -2 7 -2 -1 -20 -3 -40 -5z"/>
<path d="M4448 5883 c-2 -10 -1 -34 2 -53 4 -28 10 -36 30 -38 22 -2 23 -1 8
8 -19 12 -25 60 -8 60 6 0 5 8 -2 20 -16 25 -24 25 -30 3z"/>
<path d="M4281 5864 c-23 -17 -27 -44 -9 -62 15 -15 58 -16 58 -2 0 6 -6 10
-12 9 -30 -4 -39 2 -36 24 2 16 9 22 26 21 24 -1 30 11 8 19 -7 3 -23 -1 -35
-9z"/>
<path d="M4092 5850 c10 -16 10 -24 0 -40 -13 -21 -3 -27 15 -9 8 8 13 8 17 0
13 -20 27 -12 16 9 -8 14 -8 26 0 40 11 21 1 27 -17 9 -8 -8 -13 -8 -17 0 -4
6 -11 11 -17 11 -5 0 -4 -9 3 -20z"/>
<path d="M4174 5856 c-3 -8 -4 -25 -2 -38 3 -26 43 -38 62 -18 8 9 6 11 -11 6
-12 -4 -24 -2 -28 4 -4 6 4 10 18 10 31 0 38 9 26 31 -12 22 -57 25 -65 5z
m51 -6 c3 -5 -3 -10 -15 -10 -12 0 -18 5 -15 10 3 6 10 10 15 10 5 0 12 -4 15
-10z"/>
<path d="M4352 5833 c3 -35 6 -38 36 -41 32 -3 32 -3 31 40 0 43 -6 39 -23
-15 -9 -27 -26 -11 -26 24 0 16 -5 29 -11 29 -6 0 -9 -16 -7 -37z"/>
<path d="M4517 5863 c-11 -11 -8 -48 5 -61 14 -14 44 -16 52 -3 4 5 -2 7 -13
4 -10 -3 -22 0 -25 6 -5 7 4 11 23 11 34 0 36 2 21 31 -10 18 -50 26 -63 12z
m48 -13 c3 -5 -3 -10 -15 -10 -12 0 -18 5 -15 10 3 6 10 10 15 10 5 0 12 -4
15 -10z"/>
<path d="M5299 5507 c-109 -200 -115 -213 -101 -235 8 -12 17 -20 20 -17 3 3
1 10 -6 17 -14 14 2 46 50 105 18 22 42 53 53 69 11 15 44 56 73 90 28 34 52
67 52 73 0 5 5 13 12 17 7 5 8 3 3 -6 -5 -9 -4 -11 4 -6 10 7 -9 53 -43 103
-1 1 -53 -94 -117 -210z"/>
<path d="M6050 4630 c0 -5 5 -10 10 -10 6 0 10 5 10 10 0 6 -4 10 -10 10 -5 0
-10 -4 -10 -10z"/>
<path d="M6090 4586 c0 -30 5 -58 10 -61 6 -4 10 17 10 54 0 34 -4 61 -10 61
-5 0 -10 -24 -10 -54z"/>
<path d="M6140 4580 c0 -33 4 -60 10 -60 6 0 10 27 10 60 0 33 -4 60 -10 60
-6 0 -10 -27 -10 -60z"/>
<path d="M5940 4586 c0 -25 -1 -49 -2 -53 -2 -5 11 -9 27 -11 37 -4 72 19 59
39 -5 8 -9 25 -9 39 0 22 -5 25 -37 28 l-38 3 0 -45z m58 17 c2 -8 -5 -13 -17
-13 -21 0 -35 13 -24 24 10 10 36 3 41 -11z m7 -48 c0 -5 -10 -11 -22 -13 -16
-2 -23 2 -23 13 0 11 7 15 23 13 12 -2 22 -7 22 -13z"/>
<path d="M6050 4565 c0 -28 4 -44 10 -40 6 3 10 21 10 40 0 19 -4 37 -10 40
-6 4 -10 -12 -10 -40z"/>
<path d="M4090 4530 c0 -33 4 -60 10 -60 6 0 10 7 10 15 0 8 4 15 9 15 5 0 11
-7 15 -15 3 -8 13 -15 22 -15 15 0 15 2 -2 21 -15 17 -16 23 -6 40 15 23 5 25
-20 2 -17 -15 -18 -14 -18 20 0 21 -4 37 -10 37 -6 0 -10 -27 -10 -60z"/>
<path d="M3750 4570 c0 -5 7 -10 15 -10 11 0 15 -12 15 -45 0 -25 5 -45 10
-45 6 0 10 20 10 45 0 38 3 45 20 45 11 0 20 5 20 10 0 6 -20 10 -45 10 -25 0
-45 -4 -45 -10z"/>
<path d="M4230 4525 c0 -30 5 -55 10 -55 6 0 10 17 11 38 0 36 0 37 16 15 l15
-23 19 23 18 22 1 -37 c0 -21 5 -38 10 -38 6 0 10 25 10 55 0 60 -19 75 -41
33 l-12 -22 -15 22 c-26 40 -42 28 -42 -33z"/>
<path d="M3850 4508 c0 -32 3 -39 10 -28 5 8 10 21 10 29 0 8 8 20 18 27 15
12 14 13 -10 14 -26 0 -28 -3 -28 -42z"/>
<path d="M3914 4538 c-5 -8 -2 -9 10 -5 10 4 23 4 29 0 7 -4 2 -9 -13 -13 -16
-4 -25 -13 -25 -25 0 -16 7 -20 33 -22 27 -1 32 2 32 22 0 13 -3 30 -6 39 -7
19 -49 21 -60 4z m46 -37 c0 -14 -18 -23 -30 -16 -6 4 -8 11 -5 16 8 12 35 12
35 0z"/>
<path d="M4012 4538 c-25 -25 -6 -68 29 -68 10 0 21 4 24 10 4 6 -4 9 -17 7
-19 -2 -23 3 -23 23 0 20 5 25 23 23 12 -2 22 2 22 7 0 14 -44 12 -58 -2z"/>
<path d="M4370 4535 c-26 -32 13 -81 48 -59 34 22 22 74 -18 74 -10 0 -23 -7
-30 -15z m45 -25 c0 -13 -6 -25 -12 -27 -16 -6 -27 21 -19 43 9 23 31 11 31
-16z"/>
<path d="M4460 4508 c0 -21 5 -38 10 -38 6 0 10 13 10 29 0 17 5 33 11 37 15
9 30 -16 26 -43 -2 -13 0 -23 4 -23 5 0 9 18 9 40 0 39 -1 39 -35 38 -34 -1
-35 -3 -35 -40z"/>
<path d="M4560 4530 c-15 -28 4 -60 35 -60 14 0 25 5 25 10 0 6 -7 10 -16 8
-10 -2 -19 2 -21 8 -2 7 6 10 22 9 26 -3 29 2 19 29 -9 23 -51 20 -64 -4z m45
0 c3 -5 -3 -10 -15 -10 -12 0 -18 5 -15 10 3 6 10 10 15 10 5 0 12 -4 15 -10z"/>
<path d="M4650 4543 c0 -4 5 -22 12 -40 10 -28 10 -36 -2 -43 -18 -11 -8 -23
13 -14 9 3 23 26 31 52 19 54 19 52 7 52 -5 0 -12 -12 -16 -27 l-7 -28 -14 28
c-14 26 -24 35 -24 20z"/>
<path d="M5590 3595 l0 -325 60 0 60 0 0 325 0 325 -60 0 -60 0 0 -325z"/>
<path d="M3353 3900 c-62 -13 -114 -43 -160 -93 -52 -56 -68 -87 -83 -161 -30
-144 38 -284 168 -348 59 -29 76 -33 152 -33 73 0 93 4 141 28 66 32 132 99
162 165 34 73 31 189 -6 264 -66 135 -224 210 -374 178z m165 -129 c47 -24 66
-45 91 -101 82 -180 -113 -370 -276 -270 -57 34 -103 116 -103 183 0 76 50
159 115 192 42 21 128 19 173 -4z"/>
<path d="M5010 3585 l0 -315 60 0 60 0 0 125 0 125 150 0 150 0 0 55 0 55
-150 0 -150 0 0 80 0 80 175 0 175 0 0 55 0 55 -235 0 -235 0 0 -315z"/>
<path d="M4074 3736 c-17 -8 -41 -24 -53 -37 l-21 -23 0 32 0 32 -60 0 -60 0
0 -235 0 -235 60 0 60 0 0 154 c0 152 0 155 26 185 21 26 33 31 67 31 85 -1
97 -29 97 -219 l0 -151 60 0 60 0 0 178 c0 164 -2 181 -22 222 -15 29 -35 51
-58 62 -41 21 -113 23 -156 4z"/>
<path d="M4550 3728 c-165 -84 -174 -341 -15 -434 89 -51 215 -41 287 24 l37
33 -34 30 -34 30 -30 -22 c-40 -29 -117 -37 -159 -15 -26 14 -62 60 -62 81 0
3 77 5 170 5 l170 0 0 43 c0 145 -94 247 -227 247 -41 0 -72 -7 -103 -22z
m145 -82 c33 -14 65 -59 65 -91 0 -13 -17 -15 -111 -15 l-111 0 7 28 c9 35 32
61 70 78 38 17 39 17 80 0z"/>
<path d="M5990 3737 c-49 -16 -133 -102 -148 -153 -36 -121 7 -231 113 -291
43 -24 61 -28 125 -28 57 0 85 6 115 22 191 102 181 365 -18 448 -41 17 -135
18 -187 2z m149 -105 c65 -35 89 -125 54 -199 -23 -50 -91 -80 -142 -64 -89
26 -127 127 -81 210 38 67 105 87 169 53z"/>
<path d="M6401 3728 c0 -7 35 -112 77 -233 l77 -220 54 0 54 0 43 125 c23 69
46 136 51 149 8 21 17 3 62 -128 l53 -151 53 0 52 0 78 223 c43 122 80 228 82
235 4 9 -12 12 -58 12 l-64 0 -45 -150 c-24 -82 -47 -147 -51 -142 -4 4 -27
70 -51 147 l-45 140 -54 3 -54 3 -51 -153 c-29 -84 -54 -146 -57 -138 -3 8
-25 77 -48 153 l-42 137 -59 0 c-40 0 -58 -4 -57 -12z"/>
<path d="M3140 2995 c0 -43 4 -75 10 -75 6 0 10 11 10 25 0 22 4 25 33 25 35
0 67 25 67 52 0 27 -35 48 -78 48 l-42 0 0 -75z m90 40 c18 -21 -4 -45 -41
-45 -26 0 -29 4 -29 30 0 26 3 30 29 30 16 0 34 -7 41 -15z"/>
<path d="M3322 2998 l-2 -78 53 2 52 1 -45 6 -45 6 -6 70 -5 70 -2 -77z"/>
<path d="M3496 2998 c-33 -71 -38 -101 -12 -65 20 27 92 23 107 -5 8 -14 14
-18 16 -11 6 16 -57 153 -69 153 -5 0 -24 -33 -42 -72z m59 12 c20 -39 20 -40
-15 -40 -16 0 -30 4 -30 10 0 10 22 60 26 60 2 0 10 -13 19 -30z"/>
<path d="M3680 2995 c0 -46 4 -75 11 -75 5 0 8 4 5 9 -3 4 -2 28 2 51 l7 43
44 -56 c24 -32 45 -57 47 -57 2 0 4 37 4 82 0 89 -16 99 -22 14 l-3 -49 -39
57 c-21 31 -42 56 -47 56 -5 0 -9 -34 -9 -75z"/>
<path d="M3960 3060 c0 -5 11 -10 25 -10 24 0 25 -2 25 -65 0 -37 4 -65 10
-65 6 0 10 28 10 65 0 63 1 65 25 65 14 0 25 5 25 10 0 6 -27 10 -60 10 -33 0
-60 -4 -60 -10z"/>
<path d="M4155 3045 c-49 -48 -16 -125 54 -125 70 0 100 73 51 125 -31 33 -73
33 -105 0z m100 -19 c28 -42 0 -96 -49 -96 -23 0 -56 36 -56 62 0 55 76 79
105 34z"/>
<path d="M4448 2995 l-3 -76 54 3 c63 3 87 26 59 54 -13 13 -14 20 -5 35 19
31 -3 54 -56 57 l-45 3 -4 -76z m89 39 c7 -19 -13 -34 -44 -34 -25 0 -37 15
-29 35 8 21 65 19 73 -1z m8 -64 c12 -19 -16 -40 -51 -40 -30 0 -34 3 -34 25
0 22 4 25 39 25 22 0 43 -5 46 -10z"/>
<path d="M4630 2995 c0 -43 4 -75 10 -75 6 0 10 32 10 75 0 43 -4 75 -10 75
-6 0 -10 -32 -10 -75z"/>
<path d="M4732 2998 l-2 -78 53 2 52 1 -45 6 -45 6 -6 70 -5 70 -2 -77z"/>
<path d="M4890 2998 l0 -78 53 2 c50 1 50 2 10 5 l-43 4 0 57 c0 31 -5 64 -10
72 -7 10 -10 -9 -10 -62z"/>
<path d="M5153 2995 c0 -44 2 -61 4 -37 2 23 2 59 0 80 -2 20 -4 1 -4 -43z"/>
<path d="M5240 2995 c0 -43 4 -75 10 -75 6 0 10 25 10 56 l0 57 43 -56 c23
-31 48 -57 55 -57 15 0 17 136 2 145 -6 4 -10 -15 -10 -49 0 -31 -3 -56 -7
-56 -5 1 -26 25 -47 55 -22 30 -43 55 -48 55 -4 0 -8 -34 -8 -75z"/>
<path d="M5552 3047 c-58 -62 4 -157 83 -127 28 11 56 64 47 89 -20 60 -91 80
-130 38z m99 -13 c17 -21 14 -62 -6 -84 -39 -43 -99 -10 -93 51 5 52 66 72 99
33z"/>
<path d="M5750 2995 c0 -86 18 -102 22 -20 l3 55 42 -55 c24 -30 47 -55 53
-55 6 0 10 31 10 75 0 88 -18 102 -22 18 l-3 -58 -44 58 c-24 31 -47 57 -52
57 -5 0 -9 -34 -9 -75z"/>
<path d="M5950 2995 l0 -75 58 2 57 2 -48 3 c-46 4 -48 6 -45 31 3 25 6 27 41
24 22 -2 37 1 37 7 0 6 -18 11 -40 11 -36 0 -40 3 -40 25 0 23 4 25 45 25 25
0 45 5 45 10 0 6 -25 10 -55 10 l-55 0 0 -75z"/>
<path d="M6220 2995 c0 -43 4 -75 10 -75 6 0 10 11 10 25 0 22 4 25 34 25 38
0 66 21 66 50 0 31 -28 50 -76 50 l-44 0 0 -75z m95 25 c0 -22 -5 -25 -37 -28
-36 -3 -38 -2 -38 28 0 30 2 31 38 28 32 -3 37 -6 37 -28z"/>
<path d="M6402 2993 l3 -78 32 -2 c18 -2 42 1 55 7 19 7 15 9 -24 9 l-48 1 0
70 c0 42 -4 70 -10 70 -7 0 -10 -28 -8 -77z"/>
<path d="M6584 2997 c-17 -39 -29 -74 -27 -77 2 -3 9 3 14 13 15 26 95 24 109
-4 7 -11 14 -18 17 -15 9 8 -59 156 -71 156 -6 0 -25 -33 -42 -73z m64 1 c11
-27 10 -28 -18 -28 -33 0 -36 7 -18 45 12 28 18 25 36 -17z"/>
<path d="M6775 3045 c-45 -44 -24 -115 39 -131 26 -6 66 10 66 27 0 6 -7 6
-19 -1 -31 -16 -59 -12 -75 12 -37 52 -3 105 59 95 35 -6 48 6 19 17 -32 12
-66 5 -89 -19z"/>
<path d="M6950 2993 l0 -78 57 5 c58 5 58 5 13 8 -53 4 -64 12 -55 41 5 16 12
20 31 15 13 -3 32 -3 41 2 13 6 6 9 -27 13 -36 5 -45 10 -45 26 0 17 8 20 48
23 65 4 59 22 -8 22 l-55 0 0 -77z"/>
</g>
</svg>
